<svg xmlns="http://www.w3.org/2000/svg" width="209.999" height="58.447" viewBox="0 0 209.999 58.447">
  <g id="layer101" transform="translate(-58.232 -141.24)">
    <path id="Trazado_1009" data-name="Trazado 1009" d="M77.24,341.61C70.618,340,64,334.436,60.939,328.068c-5.816-12.226-2-26.83,8.915-34.089,4.924-3.269,13.457-4.882,19.528-3.778a31.973,31.973,0,0,1,9.891,3.948,29.186,29.186,0,0,1,7.854,8.915c1.953,3.778,1.953,3.778-2.887,3.778h-4.2l-1.358-2.08c-3.439-5.349-10.528-8.108-17.49-6.877-12.226,2.123-18.382,15.58-12.608,27.509,4.967,10.231,19.655,12.651,28.018,4.627a13.868,13.868,0,0,0,4.033-7.259c.212-1.443.17-1.571-.764-1.486-.552.042-4.84.085-9.509.042l-8.49-.042.042-2.887c.042-1.571.085-3.1.127-3.354.042-.425,3.057-.552,13.627-.552h13.585v27.169H105.9c-3.99,0-3.948.085-3.821-5.222a23.98,23.98,0,0,0-.127-3.948c-.127-.127-.722.637-1.316,1.656-1.528,2.59-3.736,4.373-7.472,6.2-3.141,1.486-3.4,1.528-8.745,1.613A41.282,41.282,0,0,1,77.24,341.61Z" transform="translate(0 -142.306)" fill="#fff"/>
    <path id="Trazado_1010" data-name="Trazado 1010" d="M2488.092,236.079c-7.471-2.8-12.141-10.4-12.1-19.783,0-11.335,6.453-19.57,16.344-20.8a16.257,16.257,0,0,1,13.5,4.755,29.548,29.548,0,0,0,2.462,2.25c.085,0,.127-5.052.127-11.25V180h8.066l-.085,28.1-.127,28.146-3.906.127-3.948.127v-6.5l-2.462,2.25c-3.863,3.566-5.816,4.373-11.123,4.5C2491.234,236.885,2489.96,236.758,2488.092,236.079Zm12.184-7.472a13.169,13.169,0,0,0,5.859-4.585c4.245-6.453,2.207-15.665-4.288-19.273a8.929,8.929,0,0,0-5.689-1.4,9.118,9.118,0,0,0-5.646,1.358,13.064,13.064,0,0,0-3.609,2.717c-4.288,5.646-3.4,15.283,1.74,19.273a29.283,29.283,0,0,0,2.547,1.571C2493.314,229.414,2497.856,229.584,2500.276,228.607Z" transform="translate(-2315.123 -37.114)" fill="#fff"/>
    <path id="Trazado_1011" data-name="Trazado 1011" d="M1460,565.8V545.637h8.023l.127,3.948.127,3.906.934-1.74a13.542,13.542,0,0,1,11.8-6.707l2.547-.042.128,4.075.127,4.075-3.311.212c-6.113.424-9.849,3.057-11.5,8.193-.849,2.547-.934,3.651-.934,13.585v10.825H1460Z" transform="translate(-1342.26 -386.619)" fill="#fff"/>
    <path id="Trazado_1012" data-name="Trazado 1012" d="M2130,579.207V559l3.948.127,3.905.127v39.9l-3.905.127-3.948.127Z" transform="translate(-1983.818 -400.025)" fill="#fff"/>
    <path id="Trazado_1013" data-name="Trazado 1013" d="M4100,334.471V309l13.287.127c12.438.127,13.415.212,15.792,1.061,3.312,1.231,6.665,4.627,7.387,7.472,1.358,5.476,0,10.486-3.524,13.075a12.584,12.584,0,0,0-1.953,1.7c0,.127.467.467,1.019.722a13.1,13.1,0,0,1,5.392,5.731c.849,1.825,1.019,2.887,1.019,6.453,0,3.778-.127,4.5-1.189,6.665-2.123,4.33-6.071,6.75-12.353,7.556-1.656.212-7.939.424-13.924.424H4100Zm25.471,16.981c3.269-.764,5.094-3.226,5.094-6.835-.042-2.887-1.273-5.179-3.438-6.2-1.7-.807-2.717-.891-10.358-.976l-8.49-.085-.127,7.3-.085,7.259h7.727A71.725,71.725,0,0,0,4125.471,351.452Zm-.935-22.245c2.717-.807,3.906-2.335,4.161-5.434.3-2.887-.722-4.882-3.015-6.028-1.528-.764-2.546-.849-9.551-.849h-7.854l-.127,6.5-.127,6.453h7.174C4120.377,329.844,4122.966,329.674,4124.537,329.207Z" transform="translate(-3870.188 -160.638)" fill="#fff"/>
    <path id="Trazado_1014" data-name="Trazado 1014" d="M2102.632,150.654a4.879,4.879,0,0,1-2.632-4.712c0-5.6,8.66-6.5,10.146-1.061a4.6,4.6,0,0,1-2.971,5.816C2105.094,151.546,2104.415,151.546,2102.632,150.654Z" transform="translate(-1955.091 0)" fill="#fff"/>
  </g>
</svg>
